<mxfile host="app.diagrams.net" agent="Mozilla/5.0 (Windows NT 10.0; Win64; x64) AppleWebKit/537.36 (KHTML, like Gecko) Chrome/135.0.0.0 Safari/537.36" version="26.2.13">
  <diagram name="PÃ¡gina-1" id="HhtQjIhKFEfLpziX8jUD">
    <mxGraphModel dx="2741" dy="1070" grid="1" gridSize="10" guides="1" tooltips="1" connect="1" arrows="1" fold="1" page="1" pageScale="1" pageWidth="827" pageHeight="1169" background="light-dark(#FFFFFF,#121212)" math="0" shadow="0">
      <root>
        <mxCell id="0" />
        <mxCell id="1" parent="0" />
        <mxCell id="uKW5IKUN8tZTgDCjG-Rx-1" value="id" style="ellipse;whiteSpace=wrap;html=1;fontStyle=5;fillColor=#fff2cc;strokeColor=#d6b656;shadow=1;" parent="1" vertex="1">
          <mxGeometry x="80" y="50" width="60" height="40" as="geometry" />
        </mxCell>
        <mxCell id="uKW5IKUN8tZTgDCjG-Rx-3" value="&lt;u&gt;username&lt;/u&gt;" style="ellipse;whiteSpace=wrap;html=1;fillColor=#dae8fc;strokeColor=#6c8ebf;shadow=1;" parent="1" vertex="1">
          <mxGeometry x="80" y="90" width="60" height="40" as="geometry" />
        </mxCell>
        <mxCell id="uKW5IKUN8tZTgDCjG-Rx-4" value="name" style="ellipse;whiteSpace=wrap;html=1;fillColor=#dae8fc;strokeColor=#6c8ebf;shadow=1;" parent="1" vertex="1">
          <mxGeometry x="80" y="130" width="60" height="40" as="geometry" />
        </mxCell>
        <mxCell id="uKW5IKUN8tZTgDCjG-Rx-6" value="master&lt;div&gt;password&lt;/div&gt;" style="ellipse;whiteSpace=wrap;html=1;fillColor=#dae8fc;strokeColor=#6c8ebf;shadow=1;" parent="1" vertex="1">
          <mxGeometry x="75" y="170" width="70" height="50" as="geometry" />
        </mxCell>
        <mxCell id="uKW5IKUN8tZTgDCjG-Rx-15" style="edgeStyle=orthogonalEdgeStyle;rounded=0;orthogonalLoop=1;jettySize=auto;html=1;exitX=0;exitY=0.5;exitDx=0;exitDy=0;strokeColor=default;endArrow=none;startFill=0;" parent="1" source="uKW5IKUN8tZTgDCjG-Rx-12" edge="1">
          <mxGeometry relative="1" as="geometry">
            <mxPoint x="180" y="220" as="targetPoint" />
          </mxGeometry>
        </mxCell>
        <mxCell id="uKW5IKUN8tZTgDCjG-Rx-12" value="User" style="rounded=1;whiteSpace=wrap;html=1;fillColor=#ffe6cc;strokeColor=#d79b00;shadow=1;" parent="1" vertex="1">
          <mxGeometry x="220" y="190" width="120" height="60" as="geometry" />
        </mxCell>
        <mxCell id="uKW5IKUN8tZTgDCjG-Rx-16" value="" style="endArrow=none;html=1;rounded=0;entryX=1;entryY=0.5;entryDx=0;entryDy=0;strokeColor=default;" parent="1" target="uKW5IKUN8tZTgDCjG-Rx-1" edge="1">
          <mxGeometry width="50" height="50" relative="1" as="geometry">
            <mxPoint x="180" y="215" as="sourcePoint" />
            <mxPoint x="220" y="65" as="targetPoint" />
            <Array as="points">
              <mxPoint x="180" y="70" />
            </Array>
          </mxGeometry>
        </mxCell>
        <mxCell id="uKW5IKUN8tZTgDCjG-Rx-17" value="" style="endArrow=none;html=1;rounded=0;entryX=1;entryY=0.5;entryDx=0;entryDy=0;strokeColor=default;" parent="1" target="uKW5IKUN8tZTgDCjG-Rx-6" edge="1">
          <mxGeometry width="50" height="50" relative="1" as="geometry">
            <mxPoint x="180" y="195" as="sourcePoint" />
            <mxPoint x="440" y="5" as="targetPoint" />
            <Array as="points" />
          </mxGeometry>
        </mxCell>
        <mxCell id="uKW5IKUN8tZTgDCjG-Rx-18" value="" style="endArrow=none;html=1;rounded=0;entryX=0;entryY=0.5;entryDx=0;entryDy=0;exitX=0;exitY=0.5;exitDx=0;exitDy=0;strokeColor=default;" parent="1" source="uKW5IKUN8tZTgDCjG-Rx-6" target="YjX0jD_oHu2AztBoUwx--14" edge="1">
          <mxGeometry width="50" height="50" relative="1" as="geometry">
            <mxPoint x="180" y="215" as="sourcePoint" />
            <mxPoint x="20" y="140" as="targetPoint" />
            <Array as="points" />
          </mxGeometry>
        </mxCell>
        <mxCell id="uKW5IKUN8tZTgDCjG-Rx-19" value="" style="endArrow=none;html=1;rounded=0;entryX=1;entryY=0.5;entryDx=0;entryDy=0;strokeColor=default;" parent="1" target="uKW5IKUN8tZTgDCjG-Rx-8" edge="1">
          <mxGeometry width="50" height="50" relative="1" as="geometry">
            <mxPoint x="180" y="255" as="sourcePoint" />
            <mxPoint x="460" y="65" as="targetPoint" />
            <Array as="points">
              <mxPoint x="180" y="285" />
            </Array>
          </mxGeometry>
        </mxCell>
        <mxCell id="uKW5IKUN8tZTgDCjG-Rx-21" value="" style="endArrow=none;html=1;rounded=0;entryX=1;entryY=0.5;entryDx=0;entryDy=0;strokeColor=default;" parent="1" target="uKW5IKUN8tZTgDCjG-Rx-11" edge="1">
          <mxGeometry width="50" height="50" relative="1" as="geometry">
            <mxPoint x="180" y="255" as="sourcePoint" />
            <mxPoint x="230" y="345" as="targetPoint" />
            <Array as="points">
              <mxPoint x="180" y="370" />
            </Array>
          </mxGeometry>
        </mxCell>
        <mxCell id="uKW5IKUN8tZTgDCjG-Rx-22" value="" style="endArrow=none;html=1;rounded=0;entryX=1;entryY=0.5;entryDx=0;entryDy=0;strokeColor=default;" parent="1" target="uKW5IKUN8tZTgDCjG-Rx-4" edge="1">
          <mxGeometry width="50" height="50" relative="1" as="geometry">
            <mxPoint x="180" y="215" as="sourcePoint" />
            <mxPoint x="140" y="95" as="targetPoint" />
            <Array as="points">
              <mxPoint x="180" y="150" />
            </Array>
          </mxGeometry>
        </mxCell>
        <mxCell id="uKW5IKUN8tZTgDCjG-Rx-23" value="" style="endArrow=none;html=1;rounded=0;entryX=1;entryY=0.5;entryDx=0;entryDy=0;strokeColor=default;" parent="1" target="uKW5IKUN8tZTgDCjG-Rx-3" edge="1">
          <mxGeometry width="50" height="50" relative="1" as="geometry">
            <mxPoint x="180" y="220" as="sourcePoint" />
            <mxPoint x="180" y="45" as="targetPoint" />
            <Array as="points">
              <mxPoint x="180" y="110" />
            </Array>
          </mxGeometry>
        </mxCell>
        <mxCell id="uKW5IKUN8tZTgDCjG-Rx-24" value="" style="endArrow=none;html=1;rounded=0;entryX=1;entryY=0.5;entryDx=0;entryDy=0;strokeColor=default;" parent="1" target="uKW5IKUN8tZTgDCjG-Rx-10" edge="1">
          <mxGeometry width="50" height="50" relative="1" as="geometry">
            <mxPoint x="180" y="220" as="sourcePoint" />
            <mxPoint x="270" y="525" as="targetPoint" />
            <Array as="points">
              <mxPoint x="180" y="330" />
            </Array>
          </mxGeometry>
        </mxCell>
        <mxCell id="uKW5IKUN8tZTgDCjG-Rx-25" value="id" style="ellipse;whiteSpace=wrap;html=1;direction=west;fontStyle=5;fillColor=#fff2cc;strokeColor=#d6b656;shadow=1;" parent="1" vertex="1">
          <mxGeometry x="905" y="120" width="60" height="40" as="geometry" />
        </mxCell>
        <mxCell id="uKW5IKUN8tZTgDCjG-Rx-26" value="&lt;u&gt;token&lt;/u&gt;" style="ellipse;whiteSpace=wrap;html=1;direction=west;fillColor=#dae8fc;strokeColor=#6c8ebf;shadow=1;" parent="1" vertex="1">
          <mxGeometry x="905" y="160" width="60" height="40" as="geometry" />
        </mxCell>
        <mxCell id="uKW5IKUN8tZTgDCjG-Rx-27" value="&lt;div&gt;created&lt;div&gt;at&lt;/div&gt;&lt;/div&gt;" style="ellipse;whiteSpace=wrap;html=1;direction=west;fillColor=#dae8fc;strokeColor=#6c8ebf;shadow=1;dashed=1;" parent="1" vertex="1">
          <mxGeometry x="1030" y="130" width="70" height="50" as="geometry" />
        </mxCell>
        <mxCell id="uKW5IKUN8tZTgDCjG-Rx-28" value="&lt;div&gt;expires&lt;/div&gt;&lt;div&gt;at&lt;/div&gt;" style="ellipse;whiteSpace=wrap;html=1;direction=west;fillColor=#dae8fc;strokeColor=#6c8ebf;shadow=1;dashed=1;" parent="1" vertex="1">
          <mxGeometry x="1030" y="180" width="70" height="50" as="geometry" />
        </mxCell>
        <mxCell id="uKW5IKUN8tZTgDCjG-Rx-34" style="edgeStyle=orthogonalEdgeStyle;rounded=0;orthogonalLoop=1;jettySize=auto;html=1;exitX=0;exitY=0.5;exitDx=0;exitDy=0;strokeColor=default;endArrow=none;startFill=0;" parent="1" source="uKW5IKUN8tZTgDCjG-Rx-35" edge="1">
          <mxGeometry relative="1" as="geometry">
            <mxPoint x="840" y="220" as="targetPoint" />
          </mxGeometry>
        </mxCell>
        <mxCell id="uKW5IKUN8tZTgDCjG-Rx-35" value="Session" style="rounded=1;whiteSpace=wrap;html=1;direction=west;fillColor=#ffe6cc;strokeColor=#d79b00;shadow=1;" parent="1" vertex="1">
          <mxGeometry x="660" y="190" width="120" height="60" as="geometry" />
        </mxCell>
        <mxCell id="uKW5IKUN8tZTgDCjG-Rx-36" value="" style="endArrow=none;html=1;rounded=0;entryX=1;entryY=0.5;entryDx=0;entryDy=0;strokeColor=default;" parent="1" target="uKW5IKUN8tZTgDCjG-Rx-25" edge="1">
          <mxGeometry width="50" height="50" relative="1" as="geometry">
            <mxPoint x="840" y="220" as="sourcePoint" />
            <mxPoint x="880" y="90" as="targetPoint" />
            <Array as="points">
              <mxPoint x="840" y="140" />
            </Array>
          </mxGeometry>
        </mxCell>
        <mxCell id="uKW5IKUN8tZTgDCjG-Rx-37" value="" style="endArrow=none;html=1;rounded=0;entryX=1;entryY=0.5;entryDx=0;entryDy=0;exitX=0;exitY=0.5;exitDx=0;exitDy=0;strokeColor=default;" parent="1" source="uKW5IKUN8tZTgDCjG-Rx-26" target="uKW5IKUN8tZTgDCjG-Rx-28" edge="1">
          <mxGeometry width="50" height="50" relative="1" as="geometry">
            <mxPoint x="1120" y="240" as="sourcePoint" />
            <mxPoint x="1100" y="-10" as="targetPoint" />
            <Array as="points" />
          </mxGeometry>
        </mxCell>
        <mxCell id="uKW5IKUN8tZTgDCjG-Rx-41" value="" style="endArrow=none;html=1;rounded=0;entryX=1;entryY=0.5;entryDx=0;entryDy=0;strokeColor=default;" parent="1" target="uKW5IKUN8tZTgDCjG-Rx-33" edge="1">
          <mxGeometry width="50" height="50" relative="1" as="geometry">
            <mxPoint x="840" y="220" as="sourcePoint" />
            <mxPoint x="890" y="330" as="targetPoint" />
            <Array as="points">
              <mxPoint x="840" y="300" />
            </Array>
          </mxGeometry>
        </mxCell>
        <mxCell id="uKW5IKUN8tZTgDCjG-Rx-42" value="" style="endArrow=none;html=1;rounded=0;entryX=1;entryY=0.5;entryDx=0;entryDy=0;exitX=0;exitY=0.5;exitDx=0;exitDy=0;strokeColor=default;" parent="1" source="uKW5IKUN8tZTgDCjG-Rx-26" target="uKW5IKUN8tZTgDCjG-Rx-27" edge="1">
          <mxGeometry width="50" height="50" relative="1" as="geometry">
            <mxPoint x="1100" y="50" as="sourcePoint" />
            <mxPoint x="800" y="80" as="targetPoint" />
            <Array as="points" />
          </mxGeometry>
        </mxCell>
        <mxCell id="uKW5IKUN8tZTgDCjG-Rx-43" value="" style="endArrow=none;html=1;rounded=0;entryX=1;entryY=0.5;entryDx=0;entryDy=0;exitX=1;exitY=0.5;exitDx=0;exitDy=0;strokeColor=default;" parent="1" target="uKW5IKUN8tZTgDCjG-Rx-26" edge="1">
          <mxGeometry width="50" height="50" relative="1" as="geometry">
            <mxPoint x="840" y="240" as="sourcePoint" />
            <mxPoint x="840" y="70" as="targetPoint" />
            <Array as="points">
              <mxPoint x="840" y="220" />
              <mxPoint x="840" y="180" />
            </Array>
          </mxGeometry>
        </mxCell>
        <mxCell id="uKW5IKUN8tZTgDCjG-Rx-44" value="" style="endArrow=none;html=1;rounded=0;entryX=1;entryY=0.5;entryDx=0;entryDy=0;strokeColor=default;" parent="1" target="uKW5IKUN8tZTgDCjG-Rx-32" edge="1">
          <mxGeometry width="50" height="50" relative="1" as="geometry">
            <mxPoint x="840" y="260" as="sourcePoint" />
            <mxPoint x="930" y="470" as="targetPoint" />
            <Array as="points" />
          </mxGeometry>
        </mxCell>
        <mxCell id="uKW5IKUN8tZTgDCjG-Rx-45" value="Tiene&lt;div&gt;1:N&lt;/div&gt;" style="rhombus;whiteSpace=wrap;html=1;fillColor=#d5e8d4;strokeColor=#82b366;shadow=1;" parent="1" vertex="1">
          <mxGeometry x="460" y="180" width="80" height="80" as="geometry" />
        </mxCell>
        <mxCell id="uKW5IKUN8tZTgDCjG-Rx-46" value="" style="endArrow=ERone;html=1;rounded=0;entryX=1;entryY=0.5;entryDx=0;entryDy=0;endFill=0;strokeColor=default;" parent="1" edge="1">
          <mxGeometry width="50" height="50" relative="1" as="geometry">
            <mxPoint x="460" y="222.0000000000001" as="sourcePoint" />
            <mxPoint x="340" y="222.0000000000001" as="targetPoint" />
          </mxGeometry>
        </mxCell>
        <mxCell id="uKW5IKUN8tZTgDCjG-Rx-48" value="" style="endArrow=ERzeroToMany;html=1;rounded=0;entryX=1;entryY=0.5;entryDx=0;entryDy=0;exitX=1;exitY=0.5;exitDx=0;exitDy=0;endFill=0;strokeColor=default;" parent="1" source="uKW5IKUN8tZTgDCjG-Rx-45" target="uKW5IKUN8tZTgDCjG-Rx-35" edge="1">
          <mxGeometry width="50" height="50" relative="1" as="geometry">
            <mxPoint x="470" y="230" as="sourcePoint" />
            <mxPoint x="350" y="230" as="targetPoint" />
          </mxGeometry>
        </mxCell>
        <mxCell id="uKW5IKUN8tZTgDCjG-Rx-50" value="(0,N)" style="text;html=1;align=center;verticalAlign=middle;whiteSpace=wrap;rounded=0;" parent="1" vertex="1">
          <mxGeometry x="610" y="190" width="60" height="30" as="geometry" />
        </mxCell>
        <mxCell id="uKW5IKUN8tZTgDCjG-Rx-52" value="id" style="ellipse;whiteSpace=wrap;html=1;direction=west;fontStyle=5;fillColor=#fff2cc;strokeColor=#d6b656;shadow=1;" parent="1" vertex="1">
          <mxGeometry x="905" y="380" width="60" height="40" as="geometry" />
        </mxCell>
        <mxCell id="uKW5IKUN8tZTgDCjG-Rx-53" value="name" style="ellipse;whiteSpace=wrap;html=1;direction=west;fillColor=#dae8fc;strokeColor=#6c8ebf;shadow=1;" parent="1" vertex="1">
          <mxGeometry x="905" y="420" width="60" height="40" as="geometry" />
        </mxCell>
        <mxCell id="uKW5IKUN8tZTgDCjG-Rx-56" value="created&lt;div&gt;at&lt;/div&gt;" style="ellipse;whiteSpace=wrap;html=1;direction=west;fillColor=#dae8fc;strokeColor=#6c8ebf;shadow=1;" parent="1" vertex="1">
          <mxGeometry x="905" y="460" width="60" height="40" as="geometry" />
        </mxCell>
        <mxCell id="uKW5IKUN8tZTgDCjG-Rx-57" value="updated&lt;div&gt;at&lt;/div&gt;" style="ellipse;whiteSpace=wrap;html=1;direction=west;fillColor=#dae8fc;strokeColor=#6c8ebf;shadow=1;" parent="1" vertex="1">
          <mxGeometry x="905" y="500" width="60" height="40" as="geometry" />
        </mxCell>
        <mxCell id="uKW5IKUN8tZTgDCjG-Rx-58" style="edgeStyle=orthogonalEdgeStyle;rounded=0;orthogonalLoop=1;jettySize=auto;html=1;exitX=0;exitY=0.5;exitDx=0;exitDy=0;strokeColor=default;endArrow=none;startFill=0;" parent="1" source="uKW5IKUN8tZTgDCjG-Rx-59" edge="1">
          <mxGeometry relative="1" as="geometry">
            <mxPoint x="840" y="460" as="targetPoint" />
          </mxGeometry>
        </mxCell>
        <mxCell id="uKW5IKUN8tZTgDCjG-Rx-59" value="Folder" style="rounded=1;whiteSpace=wrap;html=1;direction=west;fillColor=#ffe6cc;strokeColor=#d79b00;shadow=1;" parent="1" vertex="1">
          <mxGeometry x="660" y="430" width="120" height="60" as="geometry" />
        </mxCell>
        <mxCell id="uKW5IKUN8tZTgDCjG-Rx-60" value="" style="endArrow=none;html=1;rounded=0;entryX=1;entryY=0.5;entryDx=0;entryDy=0;exitX=1;exitY=0.5;exitDx=0;exitDy=0;strokeColor=default;" parent="1" target="uKW5IKUN8tZTgDCjG-Rx-52" edge="1">
          <mxGeometry width="50" height="50" relative="1" as="geometry">
            <mxPoint x="840" y="480" as="sourcePoint" />
            <mxPoint x="880" y="330" as="targetPoint" />
            <Array as="points">
              <mxPoint x="840" y="400" />
            </Array>
          </mxGeometry>
        </mxCell>
        <mxCell id="uKW5IKUN8tZTgDCjG-Rx-62" value="" style="endArrow=none;html=1;rounded=0;entryX=1;entryY=0.5;entryDx=0;entryDy=0;exitX=1;exitY=0.5;exitDx=0;exitDy=0;strokeColor=default;" parent="1" target="uKW5IKUN8tZTgDCjG-Rx-57" edge="1">
          <mxGeometry width="50" height="50" relative="1" as="geometry">
            <mxPoint x="840" y="480" as="sourcePoint" />
            <mxPoint x="890" y="570" as="targetPoint" />
            <Array as="points">
              <mxPoint x="840" y="520" />
            </Array>
          </mxGeometry>
        </mxCell>
        <mxCell id="uKW5IKUN8tZTgDCjG-Rx-64" value="" style="endArrow=none;html=1;rounded=0;entryX=1;entryY=0.5;entryDx=0;entryDy=0;exitX=1;exitY=0.5;exitDx=0;exitDy=0;strokeColor=default;" parent="1" target="uKW5IKUN8tZTgDCjG-Rx-53" edge="1">
          <mxGeometry width="50" height="50" relative="1" as="geometry">
            <mxPoint x="840" y="480" as="sourcePoint" />
            <mxPoint x="840" y="310" as="targetPoint" />
            <Array as="points">
              <mxPoint x="840" y="440" />
            </Array>
          </mxGeometry>
        </mxCell>
        <mxCell id="uKW5IKUN8tZTgDCjG-Rx-65" value="" style="endArrow=none;html=1;rounded=0;entryX=1;entryY=0.5;entryDx=0;entryDy=0;exitX=1;exitY=0.5;exitDx=0;exitDy=0;strokeColor=default;" parent="1" target="uKW5IKUN8tZTgDCjG-Rx-56" edge="1">
          <mxGeometry width="50" height="50" relative="1" as="geometry">
            <mxPoint x="840" y="480" as="sourcePoint" />
            <mxPoint x="930" y="710" as="targetPoint" />
            <Array as="points" />
          </mxGeometry>
        </mxCell>
        <mxCell id="uKW5IKUN8tZTgDCjG-Rx-67" value="Crear&lt;div&gt;1:N&lt;/div&gt;" style="rhombus;whiteSpace=wrap;html=1;fillColor=#d5e8d4;strokeColor=#82b366;shadow=1;" parent="1" vertex="1">
          <mxGeometry x="460" y="420" width="80" height="80" as="geometry" />
        </mxCell>
        <mxCell id="uKW5IKUN8tZTgDCjG-Rx-68" value="" style="endArrow=ERone;html=1;rounded=0;exitX=0;exitY=0.5;exitDx=0;exitDy=0;entryX=0.75;entryY=1;entryDx=0;entryDy=0;endFill=0;strokeColor=default;" parent="1" source="uKW5IKUN8tZTgDCjG-Rx-67" target="uKW5IKUN8tZTgDCjG-Rx-12" edge="1">
          <mxGeometry width="50" height="50" relative="1" as="geometry">
            <mxPoint x="470" y="230" as="sourcePoint" />
            <mxPoint x="220" y="300" as="targetPoint" />
            <Array as="points">
              <mxPoint x="310" y="460" />
            </Array>
          </mxGeometry>
        </mxCell>
        <mxCell id="uKW5IKUN8tZTgDCjG-Rx-70" value="" style="endArrow=ERzeroToMany;html=1;rounded=0;exitX=1;exitY=0.5;exitDx=0;exitDy=0;entryX=1;entryY=0.5;entryDx=0;entryDy=0;endFill=0;strokeColor=default;" parent="1" source="uKW5IKUN8tZTgDCjG-Rx-67" target="uKW5IKUN8tZTgDCjG-Rx-59" edge="1">
          <mxGeometry width="50" height="50" relative="1" as="geometry">
            <mxPoint x="550" y="190" as="sourcePoint" />
            <mxPoint x="630" y="460" as="targetPoint" />
          </mxGeometry>
        </mxCell>
        <mxCell id="uKW5IKUN8tZTgDCjG-Rx-72" value="(0,N)" style="text;html=1;align=center;verticalAlign=middle;whiteSpace=wrap;rounded=0;" parent="1" vertex="1">
          <mxGeometry x="610" y="430" width="60" height="30" as="geometry" />
        </mxCell>
        <mxCell id="uKW5IKUN8tZTgDCjG-Rx-73" value="id" style="ellipse;whiteSpace=wrap;html=1;direction=west;fontStyle=5;fillColor=#fff2cc;strokeColor=#d6b656;shadow=1;" parent="1" vertex="1">
          <mxGeometry x="905" y="570" width="60" height="40" as="geometry" />
        </mxCell>
        <mxCell id="uKW5IKUN8tZTgDCjG-Rx-74" value="name" style="ellipse;whiteSpace=wrap;html=1;direction=west;fillColor=#dae8fc;strokeColor=#6c8ebf;shadow=1;" parent="1" vertex="1">
          <mxGeometry x="905" y="610" width="60" height="40" as="geometry" />
        </mxCell>
        <mxCell id="uKW5IKUN8tZTgDCjG-Rx-79" style="edgeStyle=orthogonalEdgeStyle;rounded=0;orthogonalLoop=1;jettySize=auto;html=1;exitX=0;exitY=0.5;exitDx=0;exitDy=0;strokeColor=default;endArrow=none;startFill=0;" parent="1" source="uKW5IKUN8tZTgDCjG-Rx-80" edge="1">
          <mxGeometry relative="1" as="geometry">
            <mxPoint x="840" y="730" as="targetPoint" />
          </mxGeometry>
        </mxCell>
        <mxCell id="uKW5IKUN8tZTgDCjG-Rx-80" value="Password" style="rounded=1;whiteSpace=wrap;html=1;direction=west;fillColor=#ffe6cc;strokeColor=#d79b00;shadow=1;" parent="1" vertex="1">
          <mxGeometry x="660" y="700" width="120" height="60" as="geometry" />
        </mxCell>
        <mxCell id="uKW5IKUN8tZTgDCjG-Rx-81" value="" style="endArrow=none;html=1;rounded=0;entryX=1;entryY=0.5;entryDx=0;entryDy=0;exitX=1;exitY=0.5;exitDx=0;exitDy=0;strokeColor=default;" parent="1" target="uKW5IKUN8tZTgDCjG-Rx-73" edge="1">
          <mxGeometry width="50" height="50" relative="1" as="geometry">
            <mxPoint x="840" y="750" as="sourcePoint" />
            <mxPoint x="880" y="600" as="targetPoint" />
            <Array as="points">
              <mxPoint x="840" y="590" />
            </Array>
          </mxGeometry>
        </mxCell>
        <mxCell id="uKW5IKUN8tZTgDCjG-Rx-82" value="" style="endArrow=none;html=1;rounded=0;entryX=1;entryY=0.5;entryDx=0;entryDy=0;strokeColor=default;" parent="1" target="uKW5IKUN8tZTgDCjG-Rx-105" edge="1">
          <mxGeometry width="50" height="50" relative="1" as="geometry">
            <mxPoint x="840" y="710" as="sourcePoint" />
            <mxPoint x="900.0000000000041" y="755" as="targetPoint" />
            <Array as="points" />
          </mxGeometry>
        </mxCell>
        <mxCell id="uKW5IKUN8tZTgDCjG-Rx-83" value="" style="endArrow=none;html=1;rounded=0;entryX=1;entryY=0.5;entryDx=0;entryDy=0;exitX=1;exitY=0.5;exitDx=0;exitDy=0;strokeColor=default;" parent="1" target="uKW5IKUN8tZTgDCjG-Rx-78" edge="1">
          <mxGeometry width="50" height="50" relative="1" as="geometry">
            <mxPoint x="840" y="750" as="sourcePoint" />
            <mxPoint x="890" y="840" as="targetPoint" />
            <Array as="points">
              <mxPoint x="840" y="870" />
            </Array>
          </mxGeometry>
        </mxCell>
        <mxCell id="uKW5IKUN8tZTgDCjG-Rx-84" value="" style="endArrow=none;html=1;rounded=0;entryX=1;entryY=0.5;entryDx=0;entryDy=0;exitX=1;exitY=0.5;exitDx=0;exitDy=0;strokeColor=default;" parent="1" target="uKW5IKUN8tZTgDCjG-Rx-104" edge="1">
          <mxGeometry width="50" height="50" relative="1" as="geometry">
            <mxPoint x="840" y="750" as="sourcePoint" />
            <mxPoint x="900.0000000000041" y="705" as="targetPoint" />
            <Array as="points">
              <mxPoint x="840" y="670" />
            </Array>
          </mxGeometry>
        </mxCell>
        <mxCell id="uKW5IKUN8tZTgDCjG-Rx-85" value="" style="endArrow=none;html=1;rounded=0;entryX=1;entryY=0.5;entryDx=0;entryDy=0;exitX=1;exitY=0.5;exitDx=0;exitDy=0;strokeColor=default;" parent="1" target="uKW5IKUN8tZTgDCjG-Rx-74" edge="1">
          <mxGeometry width="50" height="50" relative="1" as="geometry">
            <mxPoint x="840" y="750" as="sourcePoint" />
            <mxPoint x="840" y="580" as="targetPoint" />
            <Array as="points">
              <mxPoint x="840" y="630" />
            </Array>
          </mxGeometry>
        </mxCell>
        <mxCell id="uKW5IKUN8tZTgDCjG-Rx-86" value="" style="endArrow=none;html=1;rounded=0;entryX=1;entryY=0.5;entryDx=0;entryDy=0;exitX=1;exitY=0.5;exitDx=0;exitDy=0;strokeColor=default;" parent="1" target="uKW5IKUN8tZTgDCjG-Rx-77" edge="1">
          <mxGeometry width="50" height="50" relative="1" as="geometry">
            <mxPoint x="840" y="750" as="sourcePoint" />
            <mxPoint x="930" y="980" as="targetPoint" />
            <Array as="points">
              <mxPoint x="840" y="830" />
            </Array>
          </mxGeometry>
        </mxCell>
        <mxCell id="uKW5IKUN8tZTgDCjG-Rx-87" value="Crear&lt;div&gt;1:N&lt;/div&gt;" style="rhombus;whiteSpace=wrap;html=1;fillColor=#d5e8d4;strokeColor=#82b366;shadow=1;" parent="1" vertex="1">
          <mxGeometry x="460" y="650" width="80" height="80" as="geometry" />
        </mxCell>
        <mxCell id="uKW5IKUN8tZTgDCjG-Rx-88" value="" style="endArrow=ERone;html=1;rounded=0;exitX=0;exitY=0.5;exitDx=0;exitDy=0;entryX=0.5;entryY=1;entryDx=0;entryDy=0;endFill=0;strokeColor=default;" parent="1" source="uKW5IKUN8tZTgDCjG-Rx-87" target="uKW5IKUN8tZTgDCjG-Rx-12" edge="1">
          <mxGeometry width="50" height="50" relative="1" as="geometry">
            <mxPoint x="470" y="470" as="sourcePoint" />
            <mxPoint x="320" y="260" as="targetPoint" />
            <Array as="points">
              <mxPoint x="280" y="690" />
            </Array>
          </mxGeometry>
        </mxCell>
        <mxCell id="YjX0jD_oHu2AztBoUwx--20" value="&lt;font style=&quot;font-size: 12px;&quot;&gt;(1,1)&lt;/font&gt;" style="edgeLabel;html=1;align=center;verticalAlign=middle;resizable=0;points=[];" parent="uKW5IKUN8tZTgDCjG-Rx-88" vertex="1" connectable="0">
          <mxGeometry x="0.9258" relative="1" as="geometry">
            <mxPoint y="-3" as="offset" />
          </mxGeometry>
        </mxCell>
        <mxCell id="uKW5IKUN8tZTgDCjG-Rx-98" value="" style="endArrow=ERzeroToMany;html=1;rounded=0;exitX=1;exitY=0.5;exitDx=0;exitDy=0;entryX=1;entryY=0.75;entryDx=0;entryDy=0;endFill=0;strokeColor=default;" parent="1" source="uKW5IKUN8tZTgDCjG-Rx-87" target="uKW5IKUN8tZTgDCjG-Rx-80" edge="1">
          <mxGeometry width="50" height="50" relative="1" as="geometry">
            <mxPoint x="550" y="500" as="sourcePoint" />
            <mxPoint x="670" y="500" as="targetPoint" />
            <Array as="points">
              <mxPoint x="580" y="690" />
              <mxPoint x="580" y="715" />
            </Array>
          </mxGeometry>
        </mxCell>
        <mxCell id="uKW5IKUN8tZTgDCjG-Rx-100" value="(0,N)" style="text;html=1;align=center;verticalAlign=middle;whiteSpace=wrap;rounded=0;" parent="1" vertex="1">
          <mxGeometry x="610" y="680" width="60" height="30" as="geometry" />
        </mxCell>
        <mxCell id="uKW5IKUN8tZTgDCjG-Rx-104" value="password" style="ellipse;whiteSpace=wrap;html=1;direction=west;fillColor=#dae8fc;strokeColor=#6c8ebf;shadow=1;" parent="1" vertex="1">
          <mxGeometry x="905" y="650" width="60" height="40" as="geometry" />
        </mxCell>
        <mxCell id="uKW5IKUN8tZTgDCjG-Rx-105" value="username" style="ellipse;whiteSpace=wrap;html=1;direction=west;fillColor=#dae8fc;strokeColor=#6c8ebf;shadow=1;" parent="1" vertex="1">
          <mxGeometry x="905" y="690" width="60" height="40" as="geometry" />
        </mxCell>
        <mxCell id="uKW5IKUN8tZTgDCjG-Rx-106" value="urls" style="ellipse;whiteSpace=wrap;html=1;direction=west;fillColor=#dae8fc;strokeColor=#6c8ebf;shadow=1;" parent="1" vertex="1">
          <mxGeometry x="905" y="730" width="60" height="40" as="geometry" />
        </mxCell>
        <mxCell id="uKW5IKUN8tZTgDCjG-Rx-107" value="notes" style="ellipse;whiteSpace=wrap;html=1;direction=west;fillColor=#dae8fc;strokeColor=#6c8ebf;shadow=1;" parent="1" vertex="1">
          <mxGeometry x="905" y="770" width="60" height="40" as="geometry" />
        </mxCell>
        <mxCell id="uKW5IKUN8tZTgDCjG-Rx-108" value="" style="endArrow=none;html=1;rounded=0;entryX=1;entryY=0.5;entryDx=0;entryDy=0;strokeColor=default;" parent="1" target="uKW5IKUN8tZTgDCjG-Rx-106" edge="1">
          <mxGeometry width="50" height="50" relative="1" as="geometry">
            <mxPoint x="840" y="750" as="sourcePoint" />
            <mxPoint x="915" y="720" as="targetPoint" />
            <Array as="points" />
          </mxGeometry>
        </mxCell>
        <mxCell id="uKW5IKUN8tZTgDCjG-Rx-109" value="" style="endArrow=none;html=1;rounded=0;entryX=1;entryY=0.5;entryDx=0;entryDy=0;strokeColor=default;" parent="1" target="uKW5IKUN8tZTgDCjG-Rx-107" edge="1">
          <mxGeometry width="50" height="50" relative="1" as="geometry">
            <mxPoint x="840" y="790" as="sourcePoint" />
            <mxPoint x="915" y="760" as="targetPoint" />
            <Array as="points" />
          </mxGeometry>
        </mxCell>
        <mxCell id="YjX0jD_oHu2AztBoUwx--1" value="Tiene&lt;div&gt;1:N&lt;/div&gt;" style="rhombus;whiteSpace=wrap;html=1;fillColor=#d5e8d4;strokeColor=#82b366;shadow=1;" parent="1" vertex="1">
          <mxGeometry x="680" y="545" width="80" height="80" as="geometry" />
        </mxCell>
        <mxCell id="YjX0jD_oHu2AztBoUwx--2" value="" style="endArrow=ERzeroToOne;html=1;rounded=0;exitX=0.5;exitY=0;exitDx=0;exitDy=0;entryX=0.5;entryY=0;entryDx=0;entryDy=0;endFill=0;strokeColor=default;" parent="1" source="YjX0jD_oHu2AztBoUwx--1" target="uKW5IKUN8tZTgDCjG-Rx-59" edge="1">
          <mxGeometry width="50" height="50" relative="1" as="geometry">
            <mxPoint x="460" y="560" as="sourcePoint" />
            <mxPoint x="580" y="560" as="targetPoint" />
          </mxGeometry>
        </mxCell>
        <mxCell id="YjX0jD_oHu2AztBoUwx--3" value="" style="endArrow=none;html=1;rounded=0;exitX=0.5;exitY=1;exitDx=0;exitDy=0;entryX=0.5;entryY=1;entryDx=0;entryDy=0;startArrow=ERzeroToMany;startFill=0;strokeColor=default;" parent="1" source="uKW5IKUN8tZTgDCjG-Rx-80" target="YjX0jD_oHu2AztBoUwx--1" edge="1">
          <mxGeometry width="50" height="50" relative="1" as="geometry">
            <mxPoint x="470" y="570" as="sourcePoint" />
            <mxPoint x="590" y="570" as="targetPoint" />
          </mxGeometry>
        </mxCell>
        <mxCell id="YjX0jD_oHu2AztBoUwx--4" value="(0,N)" style="text;html=1;align=center;verticalAlign=middle;whiteSpace=wrap;rounded=0;" parent="1" vertex="1">
          <mxGeometry x="710" y="675" width="60" height="30" as="geometry" />
        </mxCell>
        <mxCell id="YjX0jD_oHu2AztBoUwx--5" value="(0,1)" style="text;html=1;align=center;verticalAlign=middle;whiteSpace=wrap;rounded=0;" parent="1" vertex="1">
          <mxGeometry x="710" y="490" width="60" height="30" as="geometry" />
        </mxCell>
        <mxCell id="YjX0jD_oHu2AztBoUwx--7" value="Compartir&lt;div&gt;N:M&lt;/div&gt;" style="rhombus;whiteSpace=wrap;html=1;fillColor=#d5e8d4;strokeColor=#82b366;shadow=1;" parent="1" vertex="1">
          <mxGeometry x="460" y="730" width="80" height="80" as="geometry" />
        </mxCell>
        <mxCell id="YjX0jD_oHu2AztBoUwx--9" value="" style="endArrow=ERzeroToMany;html=1;rounded=0;exitX=1;exitY=0.5;exitDx=0;exitDy=0;entryX=1;entryY=0.25;entryDx=0;entryDy=0;endFill=0;strokeColor=default;" parent="1" source="YjX0jD_oHu2AztBoUwx--7" target="uKW5IKUN8tZTgDCjG-Rx-80" edge="1">
          <mxGeometry width="50" height="50" relative="1" as="geometry">
            <mxPoint x="550" y="700" as="sourcePoint" />
            <mxPoint x="670" y="725" as="targetPoint" />
            <Array as="points">
              <mxPoint x="580" y="770" />
              <mxPoint x="580" y="745" />
            </Array>
          </mxGeometry>
        </mxCell>
        <mxCell id="YjX0jD_oHu2AztBoUwx--10" value="" style="endArrow=ERzeroToMany;html=1;rounded=0;exitX=0;exitY=0.5;exitDx=0;exitDy=0;entryX=0.25;entryY=1;entryDx=0;entryDy=0;endFill=0;strokeColor=default;" parent="1" source="YjX0jD_oHu2AztBoUwx--7" target="uKW5IKUN8tZTgDCjG-Rx-12" edge="1">
          <mxGeometry width="50" height="50" relative="1" as="geometry">
            <mxPoint x="420" y="720" as="sourcePoint" />
            <mxPoint x="240" y="280" as="targetPoint" />
            <Array as="points">
              <mxPoint x="250" y="770" />
            </Array>
          </mxGeometry>
        </mxCell>
        <mxCell id="YjX0jD_oHu2AztBoUwx--11" value="(0,N)" style="text;html=1;align=center;verticalAlign=middle;whiteSpace=wrap;rounded=0;shadow=0;" parent="1" vertex="1">
          <mxGeometry x="610" y="750" width="60" height="30" as="geometry" />
        </mxCell>
        <mxCell id="YjX0jD_oHu2AztBoUwx--14" value="updated&lt;div&gt;at&lt;/div&gt;" style="ellipse;whiteSpace=wrap;html=1;direction=west;fillColor=#dae8fc;strokeColor=#6c8ebf;shadow=1;dashed=1;" parent="1" vertex="1">
          <mxGeometry x="-30" y="160" width="60" height="40" as="geometry" />
        </mxCell>
        <mxCell id="YjX0jD_oHu2AztBoUwx--16" value="updated&lt;div&gt;at&lt;/div&gt;" style="ellipse;whiteSpace=wrap;html=1;direction=west;fillColor=#dae8fc;strokeColor=#6c8ebf;shadow=1;dashed=1;" parent="1" vertex="1">
          <mxGeometry x="-30" y="280" width="60" height="40" as="geometry" />
        </mxCell>
        <mxCell id="YjX0jD_oHu2AztBoUwx--17" value="" style="endArrow=none;html=1;rounded=0;entryX=0;entryY=0.5;entryDx=0;entryDy=0;exitX=0;exitY=0.5;exitDx=0;exitDy=0;strokeColor=default;" parent="1" source="uKW5IKUN8tZTgDCjG-Rx-8" target="YjX0jD_oHu2AztBoUwx--16" edge="1">
          <mxGeometry width="50" height="50" relative="1" as="geometry">
            <mxPoint x="85" y="245" as="sourcePoint" />
            <mxPoint x="40" y="245" as="targetPoint" />
            <Array as="points" />
          </mxGeometry>
        </mxCell>
        <mxCell id="YjX0jD_oHu2AztBoUwx--23" value="(1,1)" style="text;html=1;align=center;verticalAlign=middle;whiteSpace=wrap;rounded=0;" parent="1" vertex="1">
          <mxGeometry x="300" y="255" width="60" height="30" as="geometry" />
        </mxCell>
        <mxCell id="YjX0jD_oHu2AztBoUwx--24" value="(1,1)" style="text;html=1;align=center;verticalAlign=middle;whiteSpace=wrap;rounded=0;" parent="1" vertex="1">
          <mxGeometry x="330" y="190" width="60" height="30" as="geometry" />
        </mxCell>
        <mxCell id="YjX0jD_oHu2AztBoUwx--25" value="(0,N)" style="text;html=1;align=center;verticalAlign=middle;whiteSpace=wrap;rounded=0;" parent="1" vertex="1">
          <mxGeometry x="200" y="255" width="60" height="30" as="geometry" />
        </mxCell>
        <mxCell id="LC9g6RfBAbIn-uIwuaNV-33" value="" style="endArrow=none;html=1;rounded=0;exitX=0.5;exitY=1;exitDx=0;exitDy=0;strokeColor=default;" parent="1" source="YjX0jD_oHu2AztBoUwx--7" edge="1">
          <mxGeometry width="50" height="50" relative="1" as="geometry">
            <mxPoint x="850" y="720" as="sourcePoint" />
            <mxPoint x="500" y="840" as="targetPoint" />
            <Array as="points" />
          </mxGeometry>
        </mxCell>
        <mxCell id="LC9g6RfBAbIn-uIwuaNV-37" value="" style="endArrow=none;html=1;rounded=0;entryX=0.5;entryY=1;entryDx=0;entryDy=0;strokeColor=default;" parent="1" target="LC9g6RfBAbIn-uIwuaNV-41" edge="1">
          <mxGeometry width="50" height="50" relative="1" as="geometry">
            <mxPoint x="500" y="840" as="sourcePoint" />
            <mxPoint x="400" y="880" as="targetPoint" />
            <Array as="points">
              <mxPoint x="400" y="840" />
            </Array>
          </mxGeometry>
        </mxCell>
        <mxCell id="LC9g6RfBAbIn-uIwuaNV-38" value="" style="endArrow=none;html=1;rounded=0;entryX=0.5;entryY=1;entryDx=0;entryDy=0;strokeColor=default;" parent="1" target="LC9g6RfBAbIn-uIwuaNV-32" edge="1">
          <mxGeometry width="50" height="50" relative="1" as="geometry">
            <mxPoint x="500" y="840" as="sourcePoint" />
            <mxPoint x="520" y="860" as="targetPoint" />
            <Array as="points">
              <mxPoint x="465" y="840" />
            </Array>
          </mxGeometry>
        </mxCell>
        <mxCell id="LC9g6RfBAbIn-uIwuaNV-39" value="" style="endArrow=none;html=1;rounded=0;entryX=0.5;entryY=1;entryDx=0;entryDy=0;strokeColor=default;" parent="1" target="LC9g6RfBAbIn-uIwuaNV-35" edge="1">
          <mxGeometry width="50" height="50" relative="1" as="geometry">
            <mxPoint x="500" y="840" as="sourcePoint" />
            <mxPoint x="475" y="890" as="targetPoint" />
            <Array as="points">
              <mxPoint x="530" y="840" />
            </Array>
          </mxGeometry>
        </mxCell>
        <mxCell id="LC9g6RfBAbIn-uIwuaNV-40" value="" style="endArrow=none;html=1;rounded=0;entryX=0.5;entryY=1;entryDx=0;entryDy=0;strokeColor=default;" parent="1" target="LC9g6RfBAbIn-uIwuaNV-36" edge="1">
          <mxGeometry width="50" height="50" relative="1" as="geometry">
            <mxPoint x="500" y="840" as="sourcePoint" />
            <mxPoint x="540" y="890" as="targetPoint" />
            <Array as="points">
              <mxPoint x="590" y="840" />
            </Array>
          </mxGeometry>
        </mxCell>
        <mxCell id="LC9g6RfBAbIn-uIwuaNV-41" value="id" style="ellipse;whiteSpace=wrap;html=1;direction=west;fontStyle=5;fillColor=#fff2cc;strokeColor=#d6b656;shadow=1;" parent="1" vertex="1">
          <mxGeometry x="370" y="880" width="60" height="40" as="geometry" />
        </mxCell>
        <mxCell id="LC9g6RfBAbIn-uIwuaNV-32" value="permission" style="ellipse;whiteSpace=wrap;html=1;direction=west;fillColor=#dae8fc;strokeColor=#6c8ebf;shadow=1;" parent="1" vertex="1">
          <mxGeometry x="430" y="880" width="70" height="40" as="geometry" />
        </mxCell>
        <mxCell id="LC9g6RfBAbIn-uIwuaNV-35" value="created&lt;div&gt;at&lt;/div&gt;" style="ellipse;whiteSpace=wrap;html=1;direction=west;fillColor=#dae8fc;strokeColor=#6c8ebf;shadow=1;" parent="1" vertex="1">
          <mxGeometry x="500" y="880" width="60" height="40" as="geometry" />
        </mxCell>
        <mxCell id="LC9g6RfBAbIn-uIwuaNV-36" value="updated&lt;div&gt;at&lt;/div&gt;" style="ellipse;whiteSpace=wrap;html=1;direction=west;fillColor=#dae8fc;strokeColor=#6c8ebf;shadow=1;" parent="1" vertex="1">
          <mxGeometry x="560" y="880" width="60" height="40" as="geometry" />
        </mxCell>
        <mxCell id="uKW5IKUN8tZTgDCjG-Rx-77" value="created&lt;div&gt;at&lt;/div&gt;" style="ellipse;whiteSpace=wrap;html=1;direction=west;fillColor=#dae8fc;strokeColor=#6c8ebf;shadow=1;" parent="1" vertex="1">
          <mxGeometry x="905" y="810" width="60" height="40" as="geometry" />
        </mxCell>
        <mxCell id="uKW5IKUN8tZTgDCjG-Rx-78" value="updated&lt;div&gt;at&lt;/div&gt;" style="ellipse;whiteSpace=wrap;html=1;direction=west;fillColor=#dae8fc;strokeColor=#6c8ebf;shadow=1;" parent="1" vertex="1">
          <mxGeometry x="905" y="850" width="60" height="40" as="geometry" />
        </mxCell>
        <mxCell id="1MgP9CScL9zWQSH3QE9m-1" value="user agent" style="ellipse;whiteSpace=wrap;html=1;fillColor=#dae8fc;strokeColor=#6c8ebf;shadow=1;" parent="1" vertex="1">
          <mxGeometry x="900" y="200" width="70" height="40" as="geometry" />
        </mxCell>
        <mxCell id="uKW5IKUN8tZTgDCjG-Rx-32" value="created&lt;div&gt;at&lt;/div&gt;" style="ellipse;whiteSpace=wrap;html=1;direction=west;fillColor=#dae8fc;strokeColor=#6c8ebf;shadow=1;" parent="1" vertex="1">
          <mxGeometry x="905" y="240" width="60" height="40" as="geometry" />
        </mxCell>
        <mxCell id="uKW5IKUN8tZTgDCjG-Rx-33" value="updated&lt;div&gt;at&lt;/div&gt;" style="ellipse;whiteSpace=wrap;html=1;direction=west;fillColor=#dae8fc;strokeColor=#6c8ebf;shadow=1;" parent="1" vertex="1">
          <mxGeometry x="905" y="280" width="60" height="40" as="geometry" />
        </mxCell>
        <mxCell id="GxYxsYi6kaWs8qBzHSwb-1" value="" style="endArrow=none;html=1;rounded=0;entryX=0;entryY=0.5;entryDx=0;entryDy=0;strokeColor=default;" parent="1" target="1MgP9CScL9zWQSH3QE9m-1" edge="1">
          <mxGeometry width="50" height="50" relative="1" as="geometry">
            <mxPoint x="840" y="220" as="sourcePoint" />
            <mxPoint x="915" y="330" as="targetPoint" />
            <Array as="points" />
          </mxGeometry>
        </mxCell>
        <mxCell id="VAyvjMSVb1vTu0FktA3v-2" value="totp&lt;br&gt;&lt;div&gt;2fa&lt;/div&gt;" style="ellipse;whiteSpace=wrap;html=1;fillColor=#dae8fc;strokeColor=#6c8ebf;shadow=1;" parent="1" vertex="1">
          <mxGeometry x="75" y="220" width="70" height="40" as="geometry" />
        </mxCell>
        <mxCell id="VAyvjMSVb1vTu0FktA3v-4" value="" style="endArrow=none;html=1;rounded=0;entryX=1;entryY=0.5;entryDx=0;entryDy=0;strokeColor=default;" parent="1" target="VAyvjMSVb1vTu0FktA3v-2" edge="1">
          <mxGeometry width="50" height="50" relative="1" as="geometry">
            <mxPoint x="180" y="220" as="sourcePoint" />
            <mxPoint x="150" y="380" as="targetPoint" />
            <Array as="points">
              <mxPoint x="180" y="240" />
            </Array>
          </mxGeometry>
        </mxCell>
        <mxCell id="uKW5IKUN8tZTgDCjG-Rx-8" value="&lt;u&gt;recuperation&lt;/u&gt;&lt;div&gt;&lt;u&gt;code&lt;/u&gt;&lt;/div&gt;" style="ellipse;whiteSpace=wrap;html=1;fillColor=#dae8fc;strokeColor=#6c8ebf;" parent="1" vertex="1">
          <mxGeometry x="70" y="260" width="80" height="50" as="geometry" />
        </mxCell>
        <mxCell id="uKW5IKUN8tZTgDCjG-Rx-10" value="created&lt;div&gt;at&lt;/div&gt;" style="ellipse;whiteSpace=wrap;html=1;fillColor=#dae8fc;strokeColor=#6c8ebf;shadow=1;" parent="1" vertex="1">
          <mxGeometry x="80" y="310" width="60" height="40" as="geometry" />
        </mxCell>
        <mxCell id="uKW5IKUN8tZTgDCjG-Rx-11" value="updated&lt;div&gt;at&lt;/div&gt;" style="ellipse;whiteSpace=wrap;html=1;fillColor=#dae8fc;strokeColor=#6c8ebf;shadow=1;" parent="1" vertex="1">
          <mxGeometry x="80" y="350" width="60" height="40" as="geometry" />
        </mxCell>
        <mxCell id="ZDt4lYfHtHXYlEFiBq8j-1" value="secret" style="ellipse;whiteSpace=wrap;html=1;direction=west;fillColor=#dae8fc;strokeColor=#6c8ebf;shadow=1;dashed=1;" vertex="1" parent="1">
          <mxGeometry x="-120" y="180" width="60" height="40" as="geometry" />
        </mxCell>
        <mxCell id="ZDt4lYfHtHXYlEFiBq8j-2" value="activated" style="ellipse;whiteSpace=wrap;html=1;direction=west;fillColor=#dae8fc;strokeColor=#6c8ebf;shadow=1;dashed=1;" vertex="1" parent="1">
          <mxGeometry x="-120" y="220" width="60" height="40" as="geometry" />
        </mxCell>
        <mxCell id="ZDt4lYfHtHXYlEFiBq8j-3" value="activated&lt;div&gt;at&lt;/div&gt;" style="ellipse;whiteSpace=wrap;html=1;direction=west;fillColor=#dae8fc;strokeColor=#6c8ebf;shadow=1;dashed=1;" vertex="1" parent="1">
          <mxGeometry x="-120" y="260" width="60" height="50" as="geometry" />
        </mxCell>
        <mxCell id="ZDt4lYfHtHXYlEFiBq8j-4" value="" style="endArrow=none;html=1;rounded=0;entryX=0;entryY=0.5;entryDx=0;entryDy=0;exitX=0;exitY=0.5;exitDx=0;exitDy=0;strokeColor=default;" edge="1" parent="1" source="VAyvjMSVb1vTu0FktA3v-2" target="ZDt4lYfHtHXYlEFiBq8j-2">
          <mxGeometry width="50" height="50" relative="1" as="geometry">
            <mxPoint x="85" y="205" as="sourcePoint" />
            <mxPoint x="40" y="205" as="targetPoint" />
            <Array as="points" />
          </mxGeometry>
        </mxCell>
        <mxCell id="ZDt4lYfHtHXYlEFiBq8j-5" value="" style="endArrow=none;html=1;rounded=0;entryX=0;entryY=0.5;entryDx=0;entryDy=0;exitX=0;exitY=0.5;exitDx=0;exitDy=0;strokeColor=default;" edge="1" parent="1" source="VAyvjMSVb1vTu0FktA3v-2" target="ZDt4lYfHtHXYlEFiBq8j-1">
          <mxGeometry width="50" height="50" relative="1" as="geometry">
            <mxPoint x="85" y="250" as="sourcePoint" />
            <mxPoint x="-50" y="250" as="targetPoint" />
            <Array as="points" />
          </mxGeometry>
        </mxCell>
        <mxCell id="ZDt4lYfHtHXYlEFiBq8j-6" value="" style="endArrow=none;html=1;rounded=0;entryX=0;entryY=0.5;entryDx=0;entryDy=0;exitX=0;exitY=0.5;exitDx=0;exitDy=0;strokeColor=default;" edge="1" parent="1" source="VAyvjMSVb1vTu0FktA3v-2" target="ZDt4lYfHtHXYlEFiBq8j-3">
          <mxGeometry width="50" height="50" relative="1" as="geometry">
            <mxPoint x="95" y="260" as="sourcePoint" />
            <mxPoint x="-40" y="260" as="targetPoint" />
            <Array as="points" />
          </mxGeometry>
        </mxCell>
      </root>
    </mxGraphModel>
  </diagram>
</mxfile>
